# AST/ASF file generated using VICON BodyLanguage
# -----------------------------------------------
:version 1.10
:name VICON
:units
  mass 1.0
  length 0.45
  angle deg
:documentation
   .ast/.asf automatically generated from VICON data using
   VICON BodyBuilder and BodyLanguage model FoxedUp or BRILLIANT.MOD
:root
   order TX TY TZ RX RY RZ
   axis XYZ
   position 0 0 0  
   orientation 0 0 0 
:bonedata
  begin
     id 1 
     name lhipjoint
     direction 0.70531 -0.63749 0.310071 
     length 2.59589 
     axis 0 0 0  XYZ
  end
  begin
     id 2 
     name lfemur
     direction 0.34202 -0.939693 0  
     length 6.19797  
     axis 0 0 20  XYZ
    dof rx ry rz
    limits (-160.0 20.0)
           (-70.0 70.0)
           (-60.0 70.0)
  end
  begin
     id 3 
     name ltibia
     direction 0.34202 -0.939693 0   
     length 7.80054   
     axis 0 0 20   XYZ
    dof rx
    limits (-10.0 170.0)
  end
  begin
     id 4 
     name lfoot
     direction 0.0828572 -0.227648 0.970212   
     length 1.88124   
     axis -90 7.62852e-016 20   XYZ
    dof rx rz
    limits (-45.0 90.0)
           (-70.0 20.0)
  end
  begin
     id 5 
     name ltoes
     direction 1.53544e-011 -4.219e-011 1   
     length 0.948015   
     axis -90 7.62852e-016 20   XYZ
    dof rx
    limits (-90.0 20.0)
  end
  begin
     id 6 
     name rhipjoint
     direction -0.730062 -0.614543 0.29891   
     length 2.69282  
     axis 0 0 0  XYZ 
  end
  begin
     id 7 
     name rfemur
     direction -0.34202 -0.939693 0   
     length 5.86298   
     axis 0 0 -20   XYZ
    dof rx ry rz
    limits (-160.0 20.0)
           (-70.0 70.0)
           (-70.0 60.0)
  end
  begin
     id 8 
     name rtibia
     direction -0.34202 -0.939693 0   
     length 7.72374   
     axis 0 0 -20   XYZ
    dof rx
    limits (-10.0 170.0)
 end
 begin
     id 9 
     name rfoot
     direction -0.0967421 -0.265797 0.959163   
     length 2.02368  
     axis -90 -7.62852e-016 -20   XYZ
    dof rx rz
    limits (-45.0 90.0)
           (-20.0 70.0)
  end
  begin
     id 10 
     name rtoes
     direction -1.53524e-011 -4.21768e-011 1   
     length 1.01373   
     axis -90 -7.62852e-016 -20   XYZ
    dof rx
    limits (-90.0 20.0)
  end
  begin
     id 11 
     name lowerback
     direction 0.00561702 0.992801 -0.119643   
     length 2.02816   
     axis 0 0 0   XYZ
    dof rx ry rz
    limits (-20.0 45.0)
           (-30.0 30.0)
           (-30.0 30.0)
  end
  begin
     id 12 
     name upperback
     direction 0.00155544 0.995735 -0.0922509   
     length 2.02265   
     axis 0 0 0   XYZ
    dof rx ry rz
    limits (-20.0 45.0)
           (-30.0 30.0)
           (-30.0 30.0)
  end
  begin
     id 13 
     name thorax
     direction -0.000937535 0.999317 -0.0369292   
     length 2.04823   
     axis 0 0 0   XYZ
    dof rx ry rz
    limits (-20.0 45.0)
           (-30.0 30.0)
           (-30.0 30.0)
  end
  begin
     id 14 
     name lowerneck
     direction -0.0813151 0.981659 0.172436   
     length 1.8875   
     axis 0 0 0   XYZ
    dof rx ry rz
    limits (-20.0 45.0)
           (-30.0 30.0)
           (-30.0 30.0)
  end
  begin
     id 15 
     name upperneck
     direction 0.119359 0.955672 -0.269157   
     length 1.92801   
     axis 0 0 0   XYZ
    dof rx ry rz
    limits (-20.0 45.0)
           (-30.0 30.0)
           (-30.0 30.0)
  end
  begin
     id 16
     name head
     direction 0.0421007 0.992672 -0.113268  
     length 1.95809  
     axis 0 0 0   XYZ
    dof rx ry rz
    limits (-20.0 45.0)
           (-30.0 30.0)
           (-30.0 30.0)
  end
  begin
     id 17 
     name lclavicle
     direction 0.944093 0.32865 -0.0260136  
     length 3.84992  
     axis 0 0 0   XYZ
    dof ry rz
    limits (-20.0 10.0)
           (0.0 20.0)
  end
  begin
     id 18 
     name lhumerus
     direction 1 -4.48979e-011 -1.27712e-029   
     length 5.53593   
     axis 180 -30 -90   XYZ
    dof rx ry rz
    limits (-60.0 90.0)
           (-90.0 90.0)
           (-90.0 90.0)
  end
  begin
     id 19
     name lradius
     direction 1 -4.48966e-011 1.00051e-028   
     length 3.13345   
     axis 180 -30 -90   XYZ
    dof rx
    limits (-10.0 170.0)
  end
  begin
     id 20
     name lwrist
     direction 1 -4.4896e-011 2.56952e-028   
     length 1.56673   
     axis -5.12785e-016 90 90   XYZ
    dof ry
    limits (-180.0 0.0)
 end
  begin
     id 21 
     name lhand
     direction 1 -4.48934e-011 5.13905e-028   
     length 0.713374   
     axis -3.27915e-016 90 90   XYZ
    dof rx rz
    limits (-90.0 90.0)
           (-45.0 45.0)
  end
  begin
     id 22 
     name lfingers
     direction 1 -4.48973e-011 1.02781e-027   
     length 0.575141   
     axis -6.5583e-016 90 90   XYZ
    dof rx
    limits (0.0 90.0)
  end
  begin
     id 23
     name lthumb
     direction 0.707107 -6.34883e-011 0.707107   
     length 0.82579   
     axis -90 45 2.85299e-015   XYZ
    dof rx rz
    limits (-45.0 45.0)
           (-45.0 45.0)
  end
  begin
     id 24 
     name rclavicle
     direction -0.936895 0.34884 0.0232243   
     length 3.53304  
     axis 0 0 0   XYZ 
    dof ry rz
    limits (-10.0 20.0)
           (-20.0 0.0)
  end
  begin
     id 25 
     name rhumerus
     direction -1 -4.48965e-011 1.05514e-027  
     length 5.4685   
     axis 180 30 90   XYZ
    dof rx ry rz
    limits (-90.0 60.0)
           (-90.0 90.0)
           (-90.0 90.0)
  end
  begin
     id 26 
     name rradius
     direction -1 -4.48964e-011 -1.1079e-027   
     length 3.22411   
     axis 180 30 90   XYZ
    dof rx
    limits (-10.0 170.0)
  end
  begin
     id 27 
     name rwrist
     direction -1 -4.48973e-011 2.56952e-028   
     length 1.61206   
     axis -5.12785e-016 -90 -90   XYZ
    dof ry
    limits (-180.0 0.0)
  end
  begin
     id 28
     name rhand
     direction -1 -4.48957e-011 5.13905e-028   
     length 0.74528   
     axis -3.27915e-016 -90 -90   XYZ
    dof rx rz
    limits (-90.0 90.0)
           (-45.0 45.0)
  end
  begin
     id 29
     name rfingers
     direction -1 -4.4901e-011 1.02781e-027   
     length 0.600864   
     axis -6.5583e-016 -90 -90   XYZ
    dof rx
    limits (0.0 90.0)
  end
  begin
     id 30
     name rthumb
     direction -0.707107 -6.34972e-011 0.707107   
     length 0.862724   
     axis -90 -45 -2.85299e-015   XYZ
    dof rx rz
    limits (-45.0 45.0)
           (-45.0 45.0)
  end
:hierarchy
  begin
    root lhipjoint rhipjoint lowerback
    lhipjoint lfemur
    lfemur ltibia
    ltibia lfoot
    lfoot ltoes
    rhipjoint rfemur
    rfemur rtibia
    rtibia rfoot
    rfoot rtoes
    lowerback upperback
    upperback thorax
    thorax lowerneck lclavicle rclavicle
    lowerneck upperneck
    upperneck head
    lclavicle lhumerus
    lhumerus lradius
    lradius lwrist
    lwrist lhand lthumb
    lhand lfingers
    rclavicle rhumerus
    rhumerus rradius
    rradius rwrist
    rwrist rhand rthumb
    rhand rfingers
  end

#!OML:ASF G:\Work\Work\Patient Classification 1\Liu\Session 1\Liu.ASF
:FULLY-SPECIFIED
:DEGREES
130
root 10.1404 15.7106 -28.2993 6.85575 3.70264 7.69281
lowerback -1.758 -2.77351 -7.48547
upperback 0.440896 -3.50911 -0.824728
thorax 1.84112 -1.82439 3.20415
lowerneck -22.456 -4.2735 -11.555
upperneck 22.6034 -4.39936 8.9634
head 11.5663 -1.86025 4.54485
rclavicle -4.96216e-014 -1.03368e-014
rhumerus -45.5894 12.7908 -89.4397
rradius 40.5839
rwrist -12.7323
rhand -16.0467 15.1401
rfingers 7.12502
rthumb 10.1551 -14.5948
lclavicle -4.96216e-014 -1.03368e-014
lhumerus -18.575 -17.8667 83.7024
lradius 38.9651
lwrist 5.30811
lhand -14.8203 34.5539
lfingers 7.12502
lthumb 11.338 64.2274
rfemur -40.3922 3.40201 12.1376
rtibia 24.8612
rfoot -13.3608 -12.8624
rtoes -13.582
lfemur 20.6434 2.08501 -32.322
ltibia 0
lfoot -10.8643 -3.78497
ltoes 9.65037
131
root 10.1269 15.7228 -28.0942 6.65677 3.62864 7.54161
lowerback -1.89866 -2.75677 -7.34771
upperback 0.622852 -3.46866 -0.827431
thorax 2.09584 -1.81542 3.11389
lowerneck -22.7671 -4.32917 -11.5276
upperneck 22.5251 -4.47499 9.06572
head 11.6073 -1.87126 4.56469
rclavicle 1.66731e-014 9.74045e-015
rhumerus -45.3875 12.4686 -89.3893
rradius 40.0089
rwrist -12.1965
rhand -16.5418 16.7976
rfingers 7.12502
rthumb 9.67741 -12.9601
lclavicle 1.66731e-014 9.74045e-015
lhumerus -18.2514 -17.4673 83.5369
lradius 38.6486
lwrist 4.80248
lhand -16.042 30.1838
lfingers 7.12502
lthumb 10.1596 59.9185
rfemur -40.1165 2.74338 13.0329
rtibia 25.6149
rfoot -10.9883 -11.9072
rtoes -17.856
lfemur 21.4329 2.48724 -31.8545
ltibia 1.59028e-014
lfoot -9.81897 -3.18231
ltoes 6.34542
132
root 10.1227 15.7455 -27.888 6.48322 4.02277 7.98561
lowerback -1.77031 -2.92402 -7.65437
upperback 0.647352 -3.69138 -0.963354
thorax 2.08468 -1.9292 3.13744
lowerneck -22.8169 -4.28428 -11.5189
upperneck 22.4542 -4.42168 9.12743
head 11.5846 -1.83684 4.5939
rclavicle -5.39949e-014 -5.36719e-015
rhumerus -45.3647 12.2576 -89.3114
rradius 38.8772
rwrist -11.2496
rhand -17.1236 19.4001
rfingers 7.12502
rthumb 9.11603 -10.3829
lclavicle -5.39949e-014 -5.36719e-015
lhumerus -18.3474 -17.07 83.6243
lradius 38.3778
lwrist 4.62866
lhand -15.8271 31.6841
lfingers 7.12502
lthumb 10.367 61.4086
rfemur -39.7808 1.91231 12.824
rtibia 26.2753
rfoot -7.59314 -10.3538
rtoes -20.1861
lfemur 22.2699 2.39764 -32.0352
ltibia -9.54166e-015
lfoot -8.53076 -2.52924
ltoes 0.276017
133
root 10.1052 15.7636 -27.6751 6.20786 4.26699 7.5906
lowerback -1.56262 -3.05197 -7.31264
upperback 0.516549 -3.89828 -0.806645
thorax 1.84283 -2.0188 3.11601
lowerneck -22.502 -4.09813 -11.5166
upperneck 22.4108 -4.18397 9.09206
head 11.4772 -1.74048 4.61799
rclavicle 1.61016e-014 -1.31198e-014
rhumerus -45.8722 12.1185 -89.3162
rradius 38.2995
rwrist -10.5417
rhand -17.6651 21.0947
rfingers 7.12502
rthumb 8.59355 -8.71037
lclavicle 1.61016e-014 -1.31198e-014
lhumerus -18.8938 -16.4822 83.8212
lradius 38.2507
lwrist 4.10184
lhand -16.1728 31.039
lfingers 7.12502
lthumb 10.0334 60.7798
rfemur -39.3022 2.7728 12.8225
rtibia 26.7443
rfoot -5.7449 -9.75667
rtoes -17.508
lfemur 23.2264 2.49284 -31.1964
ltibia 4.45278e-014
lfoot -7.00389 -2.23378
ltoes -0.670075
134
root 10.0917 15.7837 -27.4623 5.8873 4.5862 7.2657
lowerback -1.40296 -3.20289 -6.98569
upperback 0.4452 -4.12553 -0.675442
thorax 1.69012 -2.1235 3.07176
lowerneck -22.2129 -3.96916 -11.5421
upperneck 22.4141 -4.00942 9.02828
head 11.4006 -1.6783 4.62627
rclavicle 3.61291e-014 -3.57812e-015
rhumerus -46.3229 11.9795 -89.3412
rradius 38.181
rwrist -10.1705
rhand -16.9147 18.8567
rfingers 7.12502
rthumb 9.31768 -10.9173
lclavicle 3.61291e-014 -3.57812e-015
lhumerus -19.4857 -16.0275 84.1506
lradius 38.124
lwrist 4.40448
lhand -16.8389 31.3292
lfingers 7.12502
lthumb 9.39075 61.1
rfemur -38.6527 2.93421 13.0872
rtibia 27.3233
rfoot -4.58989 -8.6543
rtoes -15.1135
lfemur 24.2125 2.51342 -30.4476
ltibia 1.08139e-013
lfoot -5.32479 -1.4254
ltoes -2.4804
135
root 10.0813 15.8013 -27.2516 5.55183 4.68524 6.77135
lowerback -1.36185 -3.25566 -6.50171
upperback 0.467827 -4.21043 -0.502104
thorax 1.67695 -2.16277 2.98044
lowerneck -21.964 -3.98012 -11.6436
upperneck 22.2675 -4.01716 9.04954
head 11.3019 -1.69164 4.64467
rclavicle 1.49585e-014 1.66979e-014
rhumerus -46.4727 11.7376 -89.219
rradius 37.7158
rwrist -9.65566
rhand -14.6519 13.7612
rfingers 7.12502
rthumb 11.5005 -15.9033
lclavicle 1.49585e-014 1.66979e-014
lhumerus -20.0048 -15.7505 84.5557
lradius 37.8363
lwrist 5.50989
lhand -16.7743 32.6711
lfingers 7.12502
lthumb 9.45316 62.4391
rfemur -37.8912 2.5038 13.9433
rtibia 27.8548
rfoot -3.20797 -7.28014
rtoes -16.5932
lfemur 25.179 2.75928 -29.5766
ltibia 6.36111e-015
lfoot -3.5751 -0.463667
ltoes -4.31577
136
root 10.0706 15.8091 -27.0416 5.1939 4.5945 6.05024
lowerback -1.23182 -3.2712 -5.81755
upperback 0.443002 -4.25814 -0.24488
thorax 1.55196 -2.17831 2.87341
lowerneck -21.7901 -3.96433 -11.808
upperneck 22.1897 -3.98771 9.17015
head 11.2425 -1.6806 4.72034
rclavicle 1.38155e-014 -8.34896e-015
rhumerus -46.6433 11.6685 -89.081
rradius 37.0398
rwrist -9.17003
rhand -16.579 18.8936
rfingers 7.12502
rthumb 9.64158 -10.8657
lclavicle 1.38155e-014 -8.34896e-015
lhumerus -20.5089 -14.9064 84.7649
lradius 37.3767
lwrist 5.01547
lhand -18.0368 30.8182
lfingers 7.12502
lthumb 8.2348 60.6377
rfemur -37.1916 1.78177 15.2747
rtibia 28.51
rfoot -2.06504 -5.81033
rtoes -17.44
lfemur 26.1972 3.19025 -28.4749
ltibia -6.67916e-014
lfoot -1.79787 0.424152
ltoes -2.7067
137
root 10.0582 15.8228 -26.8352 4.87307 4.53775 5.44863
lowerback -0.923679 -3.28832 -5.27995
upperback 0.302118 -4.31653 -0.0292426
thorax 1.21576 -2.19351 2.81976
lowerneck -21.5949 -3.86087 -11.7917
upperneck 22.2803 -3.87331 9.15864
head 11.224 -1.63432 4.7343
rclavicle -1.54307e-014 6.36111e-015
rhumerus -46.9533 11.5922 -89.0117
rradius 36.5464
rwrist -8.85938
rhand -16.036 18.1361
rfingers 7.12502
rthumb 10.1654 -11.5983
lclavicle -1.54307e-014 6.36111e-015
lhumerus -21.1523 -13.8693 84.9315
lradius 36.9592
lwrist 3.59291
lhand -19.5268 28.9756
lfingers 7.12502
lthumb 6.79661 58.8465
rfemur -36.5686 0.874749 16.5264
rtibia 29.2391
rfoot -1.53994 -4.63703
rtoes -18.8665
lfemur 27.1115 3.56581 -27.5009
ltibia -6.99722e-014
lfoot 0.271077 1.79899
ltoes -0.895006
138
root 10.0428 15.8445 -26.6361 4.67169 4.56252 5.00572
lowerback -0.762376 -3.27946 -4.85826
upperback 0.358461 -4.31894 0.0828422
thorax 1.1608 -2.19231 2.70913
lowerneck -21.8479 -3.89121 -11.644
upperneck 22.3031 -3.91152 9.0615
head 11.2801 -1.64564 4.66748
rclavicle -8.54774e-015 -3.97569e-016
rhumerus -46.8474 11.1571 -88.8356
rradius 36.2248
rwrist -8.29641
rhand -14.8311 15.7334
rfingers 7.12502
rthumb 11.3277 -13.9407
lclavicle -8.54774e-015 -3.97569e-016
lhumerus -21.4405 -13.3149 85.0947
lradius 36.6682
lwrist 3.18171
lhand -19.2114 29.7821
lfingers 7.12502
lthumb 7.10105 59.6429
rfemur -36.0564 0.553054 17.288
rtibia 29.9494
rfoot -1.70266 -4.311
rtoes -17.7599
lfemur 23.0578 3.98941 -26.6564
ltibia 8.48075
lfoot -0.100225 1.28028
ltoes 0.492046
139
root 10.026 15.8676 -26.4316 4.5339 4.61031 4.6184
lowerback -0.730654 -3.32665 -4.4741
upperback 0.437707 -4.38703 0.184249
thorax 1.20911 -2.22663 2.59709
lowerneck -22.3209 -3.94481 -11.5421
upperneck 22.4476 -3.96227 9.01684
head 11.4277 -1.65707 4.63106
rclavicle 4.74847e-014 -3.18055e-015
rhumerus -46.6643 10.7717 -88.6196
rradius 35.8977
rwrist -7.5074
rhand -14.2254 15.2189
rfingers 7.12502
rthumb 11.9118 -14.4223
lclavicle 4.74847e-014 -3.18055e-015
lhumerus -21.7879 -12.7915 85.2613
lradius 36.3864
lwrist 3.43388
lhand -17.4478 31.7461
lfingers 7.12502
lthumb 8.80328 61.5425
rfemur -35.5049 0.785466 17.7902
rtibia 30.5699
rfoot -2.12496 -4.25645
rtoes -14.8111
lfemur 20.7706 4.3208 -25.8353
ltibia 13.5836
lfoot 0.85567 2.20971
ltoes 3.97908
